HIERARCHY
ROOT Hips
{
    OFFSET 0.000000 0.000000 0.000000
    CHANNELS 6 Xposition Yposition Zposition Zrotation Xrotation Yrotation
    JOINT Spine
    {
        OFFSET -0.000000 8.079700 0.000000
        CHANNELS 3 Zrotation Xrotation Yrotation
        JOINT Spine1
        {
            OFFSET -0.000000 23.289207 0.000000
            CHANNELS 3 Zrotation Xrotation Yrotation
            JOINT Neck
            {
                OFFSET -0.000000 23.193563 2.108506
                CHANNELS 3 Zrotation Xrotation Yrotation
                JOINT Head
                {
                    OFFSET -0.000000 13.794610 -1.970658
                    CHANNELS 3 Zrotation Xrotation Yrotation
                    End Site
                    {
                        OFFSET -0.000000 24.633232 0.000000
                    }
                }
            }
            JOINT LeftShoulder
            {
                OFFSET 3.964071 21.437269 -0.109506
                CHANNELS 3 Zrotation Xrotation Yrotation
                JOINT LeftArm
                {
                    OFFSET 10.889085 0.000000 0.000000
                    CHANNELS 3 Zrotation Xrotation Yrotation
                    JOINT LeftForeArm
                    {
                        OFFSET 33.323662 0.000000 0.000000
                        CHANNELS 3 Zrotation Xrotation Yrotation
                        JOINT LeftHand
                        {
                            OFFSET 25.127829 0.000000 0.000000
                            CHANNELS 3 Zrotation Xrotation Yrotation
                            End Site
                            {
                                OFFSET 14.779941 0.000000 0.000000
                            }
                        }
                    }
                }
            }
            JOINT RightShoulder
            {
                OFFSET -3.907116 21.437269 -0.109506
                CHANNELS 3 Zrotation Xrotation Yrotation
                JOINT RightArm
                {
                    OFFSET -10.889085 0.000000 0.000000
                    CHANNELS 3 Zrotation Xrotation Yrotation
                    JOINT RightForeArm
                    {
                        OFFSET -33.323662 0.000000 0.000000
                        CHANNELS 3 Zrotation Xrotation Yrotation
                        JOINT RightHand
                        {
                            OFFSET -25.127829 0.000000 0.000000
                            CHANNELS 3 Zrotation Xrotation Yrotation
                            End Site
                            {
                                OFFSET -14.779941 0.000000 0.000000
                            }
                        }
                    }
                }
            }
        }
    }
    JOINT LeftUpLeg
    {
        OFFSET 9.853293 0.000000 0.000000
        CHANNELS 3 Zrotation Xrotation Yrotation
        JOINT LeftLeg
        {
            OFFSET -0.000000 -42.191887 0.000000
            CHANNELS 3 Zrotation Xrotation Yrotation
            JOINT LeftFoot
            {
                OFFSET -0.000000 -39.359688 0.000000
                CHANNELS 3 Zrotation Xrotation Yrotation
                JOINT LeftToeBase
                {
                    OFFSET -0.000000 -6.404640 14.779941
                    CHANNELS 3 Zrotation Xrotation Yrotation
                    End Site
                    {
                        OFFSET -0.000000 0.000000 3.941317
                    }
                }
            }
        }
    }
    JOINT RightUpLeg
    {
        OFFSET -9.853293 0.000000 0.000000
        CHANNELS 3 Zrotation Xrotation Yrotation
        JOINT RightLeg
        {
            OFFSET -0.000000 -42.191887 0.000000
            CHANNELS 3 Zrotation Xrotation Yrotation
            JOINT RightFoot
            {
                OFFSET -0.000000 -39.359688 0.000000
                CHANNELS 3 Zrotation Xrotation Yrotation
                JOINT RightToeBase
                {
                    OFFSET -0.000000 -6.404640 14.779941
                    CHANNELS 3 Zrotation Xrotation Yrotation
                    End Site
                    {
                        OFFSET -0.000000 0.000000 3.941317
                    }
                }
            }
        }
    }
}
MOTION
Frames:    13
Frame Time:    0.008333
32.887367    92.563507    102.840439    -2.183855    0.419850    -175.377884    -1.215370    0.483382    -0.520604    1.788303    -0.760503    -0.513942    0.000000    0.000000    0.000000    0.000000    0.000000    0.000000    17.129427    3.127304    4.221361    -21.460642    -2.151919    -2.570555    1.801127    1.902720    -0.188282    13.479298    1.149221    -6.397065    -15.871371    1.706752    -3.355135    20.573301    -5.192658    0.386788    -0.363753    2.293837    -1.977384    -5.262941    1.965344    7.007463    -4.294744    2.661093    -0.591722    -1.005035    1.336764    4.232879    4.813187    2.466368    6.823940    0.000000    0.000000    0.000000    -3.518747    6.091060    -4.376156    7.431890    1.980945    -0.371415    -17.456316    -4.714872    -5.484185    0.000000    0.000000    0.000000    
32.906326    92.569672    102.837181    -2.111470    0.460554    -175.477386    -1.108603    0.530086    -0.495824    1.745722    -0.823346    -0.488536    6.534562    10.447466    12.621614    -15.373428    -5.212697    9.932425    17.117136    3.106238    4.341882    -21.428350    -1.994594    -2.620335    1.807365    1.972904    -0.273402    13.463261    1.220971    -6.402840    -15.964720    1.651845    -3.379594    20.627565    -5.233667    0.484267    -0.351270    2.347507    -1.981837    -5.287547    2.017970    7.001485    -4.225345    2.722428    -0.450664    -0.977362    1.294283    4.274871    4.760802    2.450983    6.765997    0.000000    0.000000    0.000000    -3.426195    6.148482    -4.210115    7.405280    1.893555    -0.476374    -17.448578    -4.645879    -5.409274    0.000000    0.000000    0.000000    
32.914658    92.565498    102.821327    -2.106880    0.479376    -175.542267    -1.084327    0.506023    -0.479581    1.702079    -0.813960    -0.472400    6.468921    10.434743    12.578165    -15.255197    -4.984667    9.941593    17.153746    3.096411    4.433680    -21.433519    -1.838998    -2.668495    1.813861    2.032663    -0.339364    13.470857    1.275585    -6.451862    -16.038866    1.585521    -3.405989    20.715073    -5.126078    0.595753    -0.454719    2.267330    -2.040130    -5.184640    1.941582    7.012440    -4.212922    2.781102    -0.494332    -0.980835    1.246805    4.354531    4.749680    2.420567    6.781507    0.000000    0.000000    0.000000    -3.422565    6.213450    -4.214198    7.411536    1.809788    -0.441541    -17.424007    -4.636338    -5.364838    0.000000    0.000000    0.000000    
32.920868    92.567528    102.812790    -2.110183    0.474868    -175.582245    -1.084287    0.470512    -0.472281    1.689863    -0.817037    -0.464851    6.405643    10.445769    12.531549    -15.174063    -4.794873    9.936556    17.173222    3.104993    4.505477    -21.436852    -1.769830    -2.708781    1.803897    2.077216    -0.410107    13.544249    1.310881    -6.503814    -16.129568    1.529314    -3.432574    20.761839    -5.116709    0.649240    -0.503332    2.194913    -1.977449    -5.026855    1.879704    6.978938    -4.222446    2.813786    -0.497991    -0.957865    1.186654    4.376410    4.730875    2.445986    6.786948    0.000000    0.000000    0.000000    -3.466292    6.291232    -4.132042    7.503256    1.653667    -0.362248    -17.471445    -4.526667    -5.443066    0.000000    0.000000    0.000000    
32.929901    92.563095    102.797005    -2.101837    0.486324    -175.638626    -1.055317    0.435715    -0.477825    1.652203    -0.815205    -0.470165    6.359313    10.322346    12.532531    -15.069987    -4.353399    10.008883    17.167665    3.206638    4.545453    -21.410767    -1.727418    -2.686126    1.811181    2.049684    -0.495982    13.609521    1.275043    -6.552812    -16.195602    1.456016    -3.415301    20.757591    -5.227316    0.646185    -0.426943    2.252963    -1.770312    -4.985358    1.948313    6.844050    -4.211897    2.887074    -0.516086    -0.954735    1.086003    4.485068    4.714302    2.450316    6.766888    0.000000    0.000000    0.000000    -3.457472    6.347421    -4.056836    7.511133    1.563377    -0.404291    -17.479530    -4.521281    -5.400976    0.000000    0.000000    0.000000    
32.935158    92.555786    102.784088    -2.153116    0.469635    -175.684204    -1.116609    0.374511    -0.476357    1.644656    -0.810411    -0.468379    6.323881    10.334394    12.523670    -14.993661    -4.128284    10.044898    17.189827    3.234643    4.591322    -21.418676    -1.688757    -2.688818    1.815112    2.024832    -0.548407    13.724977    1.240362    -6.585853    -16.225975    1.409811    -3.413456    20.755404    -5.198162    0.686252    -0.480150    2.190120    -1.720943    -4.755180    1.891918    7.004602    -4.277278    2.929763    -0.466717    -0.913310    1.010138    4.417757    4.681107    2.459412    6.817187    0.000000    0.000000    0.000000    -3.424739    6.292731    -4.383567    7.313684    1.662913    -0.316707    -17.362640    -4.681970    -5.145914    0.000000    0.000000    0.000000    
32.954517    92.558304    102.754700    -2.096191    0.492191    -175.700745    -1.100640    0.303730    -0.476273    1.683671    -0.740229    -0.468402    6.329914    10.347092    12.498754    -14.995913    -3.943421    10.042564    17.220804    3.247080    4.620134    -21.457735    -1.659864    -2.702573    1.835521    1.993066    -0.573058    13.834104    1.194586    -6.652804    -16.279171    1.351122    -3.440695    20.763699    -5.123502    0.717682    -0.489648    2.120488    -1.633579    -4.718029    1.823864    7.026239    -4.196198    3.021368    -0.474395    -0.926411    0.903146    4.512490    4.640458    2.445468    6.750109    0.000000    0.000000    0.000000    -3.346842    6.374814    -4.299654    7.309180    1.560329    -0.409325    -17.359367    -4.618471    -5.102433    0.000000    0.000000    0.000000    
32.966511    92.555038    102.740158    -2.095649    0.482278    -175.745743    -1.127080    0.248826    -0.472952    1.708428    -0.743361    -0.464477    6.165859    10.590949    12.519578    -14.819752    -4.166442    10.090171    17.204920    3.306383    4.653945    -21.442537    -1.634427    -2.713253    1.832676    1.958935    -0.592705    13.984370    1.149683    -6.670398    -16.319763    1.334940    -3.440147    20.767294    -5.034351    0.780432    -0.494809    1.984763    -1.576354    -4.824424    1.681642    7.028940    -4.185468    3.075602    -0.463078    -0.934831    0.801626    4.566938    4.628162    2.454345    6.739401    0.000000    0.000000    0.000000    -3.316238    6.351801    -4.323899    7.249536    1.589310    -0.459252    -17.310877    -4.678773    -4.994263    0.000000    0.000000    0.000000    
32.974861    92.551804    102.725922    -2.095300    0.481325    -175.789551    -1.154491    0.195799    -0.462707    1.721714    -0.737554    -0.453746    6.235387    10.715716    12.543283    -14.901271    -4.060879    10.117493    17.236097    3.325313    4.629935    -21.471727    -1.657732    -2.672149    1.837149    1.963935    -0.586164    14.172413    1.137645    -6.717166    -16.314857    1.332404    -3.422893    20.732901    -4.973962    0.803314    -0.504926    1.858047    -1.533872    -4.874947    1.548830    7.099274    -4.175746    3.142132    -0.470583    -0.933833    0.692202    4.622176    4.612206    2.472906    6.701827    0.000000    0.000000    0.000000    -3.318163    6.373300    -4.246783    7.258713    1.543670    -0.493609    -17.355265    -4.630862    -5.104769    0.000000    0.000000    0.000000    
32.986450    92.549538    102.710022    -2.090581    0.487865    -175.831345    -1.178502    0.149720    -0.447725    1.728397    -0.728763    -0.438402    6.292996    10.868551    12.525044    -14.984197    -4.044891    10.091682    17.288155    3.253741    4.647135    -21.477055    -1.684053    -2.674436    1.754841    2.015368    -0.532946    14.360472    1.169312    -6.775389    -16.290125    1.340365    -3.408261    20.690725    -4.888116    0.810761    -0.508860    1.667295    -1.456236    -5.021639    1.347267    7.144908    -4.147172    3.208724    -0.545418    -0.966753    0.598212    4.765059    4.625176    2.474535    6.673130    0.000000    0.000000    0.000000    -3.311784    6.393436    -4.238176    7.264210    1.524181    -0.469538    -17.321306    -4.672804    -4.983819    0.000000    0.000000    0.000000    
32.997265    92.549042    102.697517    -2.082546    0.492122    -175.864120    -1.199371    0.110207    -0.439759    1.742532    -0.727216    -0.429936    6.296881    11.015268    12.512419    -14.968750    -4.052547    10.088620    17.309038    3.330679    4.561590    -21.508484    -1.701742    -2.591476    1.804873    1.972278    -0.505664    14.423840    1.119931    -6.793253    -16.288563    1.344676    -3.403684    20.677240    -4.758960    0.859755    -0.599346    1.535830    -1.495779    -4.811175    1.220703    7.307368    -4.125454    3.274806    -0.524268    -0.971755    0.500572    4.782351    4.575385    2.479666    6.671245    0.000000    0.000000    0.000000    -3.298926    6.417136    -4.158022    7.266254    1.490267    -0.511886    -17.365358    -4.610178    -5.092512    0.000000    0.000000    0.000000    
33.008671    92.547623    102.686249    -2.072520    0.502746    -175.893341    -1.218266    0.081875    -0.438041    1.759578    -0.727202    -0.427824    6.409146    11.100746    12.550930    -15.105145    -3.898077    10.124370    17.345360    3.242251    4.587359    -21.522459    -1.651815    -2.587562    1.785500    1.996970    -0.417094    14.450158    1.138681    -6.815987    -16.302769    1.348312    -3.391045    20.667719    -4.729227    0.895435    -0.622431    1.340849    -1.503870    -4.850546    1.013729    7.520510    -4.092225    3.367125    -0.526741    -0.997547    0.359276    4.819972    4.568414    2.508813    6.654344    0.000000    0.000000    0.000000    -3.289276    6.420408    -4.170987    7.278099    1.510428    -0.463591    -17.386629    -4.617356    -5.120460    0.000000    0.000000    0.000000    
33.015083    92.546272    102.682098    -2.076474    0.501266    -175.925171    -1.241167    0.046699    -0.428142    1.751313    -0.714587    -0.417723    6.498256    11.202437    12.593238    -15.191065    -3.863523    10.159930    17.420204    3.243027    4.567165    -21.560856    -1.754148    -2.578140    1.745912    2.053857    -0.331361    14.454824    1.192864    -6.823684    -16.293039    1.334236    -3.393141    20.608768    -4.769278    0.896641    -0.526909    1.255754    -1.448534    -4.981185    0.917522    7.613479    -4.087074    3.422090    -0.572089    -1.005248    0.251983    4.993769    4.599430    2.540901    6.525915    0.000000    0.000000    0.000000    -3.295387    6.412175    -4.151603    7.281709    1.523038    -0.447423    -17.365477    -4.630804    -5.147092    0.000000    0.000000    0.000000    
